HIERARCHY
ROOT Hips
{
	OFFSET 0.000000 99.793892 0.000000
	CHANNELS 6 Xposition Yposition Zposition Xrotation Yrotation Zrotation 
	JOINT Spine
	{
		OFFSET 0.000000 9.694397 -1.109700
		CHANNELS 3 Xrotation Yrotation Zrotation
		JOINT Spine1
		{
			OFFSET 0.000000 8.078677 -0.924777
			CHANNELS 3 Xrotation Yrotation Zrotation
			JOINT Spine1_split
			{
				OFFSET 0.000000 8.078677 -0.924777
				CHANNELS 3 Xrotation Yrotation Zrotation
				JOINT Spine2
				{
					OFFSET 0.000000 8.078677 -0.924777
					CHANNELS 3 Xrotation Yrotation Zrotation
					JOINT Neck
					{
						OFFSET 0.000000 14.541641 -1.664600
						CHANNELS 3 Xrotation Yrotation Zrotation
						JOINT Head
						{
							OFFSET 0.000000 6.944305 1.982500
							CHANNELS 3 Xrotation Yrotation Zrotation
							JOINT HeadTop_End
							{
								OFFSET 0.000000 22.789597 6.506100
								CHANNELS 3 Xrotation Yrotation Zrotation
								End Site
								{
									OFFSET 0.000000 0.000000 0.000000
								}
							}
						}
					}
					JOINT LeftShoulder
					{
						OFFSET 3.340650 6.393044 -0.810984
						CHANNELS 3 Xrotation Yrotation Zrotation
						JOINT LeftShoulder_split
						{
							OFFSET 3.340650 6.393044 -0.810984
							CHANNELS 3 Xrotation Yrotation Zrotation
							JOINT LeftArm
							{
								OFFSET 13.585576 -3.446136 0.085203
								CHANNELS 3 Xrotation Yrotation Zrotation
								JOINT LeftForeArm
								{
									OFFSET 27.330299 0.000000 -0.000001
									CHANNELS 3 Xrotation Yrotation Zrotation
									JOINT LeftHand
									{
										OFFSET 20.888802 0.000000 -0.000001
										CHANNELS 3 Xrotation Yrotation Zrotation
										JOINT LeftHandThumb1
										{
											OFFSET 3.934731 -1.328445 2.632622
											CHANNELS 3 Xrotation Yrotation Zrotation
											JOINT LeftHandThumb2
											{
												OFFSET 3.046997 -1.759186 1.759186
												CHANNELS 3 Xrotation Yrotation Zrotation
												JOINT LeftHandThumb3
												{
													OFFSET 2.671288 -1.542267 1.542270
													CHANNELS 3 Xrotation Yrotation Zrotation
													JOINT LeftHandThumb4
													{
														OFFSET 2.059540 -1.189072 1.189075
														CHANNELS 3 Xrotation Yrotation Zrotation
														End Site
														{
															OFFSET 0.000000 0.000000 0.000000
														}
													}
												}
											}
										}
										JOINT LeftHandIndex1
										{
											OFFSET 11.356102 -0.357925 2.480554
											CHANNELS 3 Xrotation Yrotation Zrotation
											JOINT LeftHandIndex2
											{
												OFFSET 3.230431 0.000000 -0.000000
												CHANNELS 3 Xrotation Yrotation Zrotation
												JOINT LeftHandIndex3
												{
													OFFSET 3.093842 0.000000 -0.000000
													CHANNELS 3 Xrotation Yrotation Zrotation
													JOINT LeftHandIndex4
													{
														OFFSET 2.710304 0.000000 -0.000000
														CHANNELS 3 Xrotation Yrotation Zrotation
														End Site
														{
															OFFSET 0.000000 0.000000 0.000000
														}
													}
												}
											}
										}
										JOINT LeftHandMiddle1
										{
											OFFSET 11.227951 0.000000 -0.000001
											CHANNELS 3 Xrotation Yrotation Zrotation
											JOINT LeftHandMiddle2
											{
												OFFSET 3.465431 0.000000 0.000000
												CHANNELS 3 Xrotation Yrotation Zrotation
												JOINT LeftHandMiddle3
												{
													OFFSET 3.340118 0.000000 0.000000
													CHANNELS 3 Xrotation Yrotation Zrotation
													JOINT LeftHandMiddle4
													{
														OFFSET 2.993599 0.000000 0.000000
														CHANNELS 3 Xrotation Yrotation Zrotation
														End Site
														{
															OFFSET 0.000000 0.000000 0.000000
														}
													}
												}
											}
										}
										JOINT LeftHandRing1
										{
											OFFSET 11.215385 -0.016006 -2.298895
											CHANNELS 3 Xrotation Yrotation Zrotation
											JOINT LeftHandRing2
											{
												OFFSET 2.891907 0.000000 0.000000
												CHANNELS 3 Xrotation Yrotation Zrotation
												JOINT LeftHandRing3
												{
													OFFSET 2.705215 0.000000 0.000000
													CHANNELS 3 Xrotation Yrotation Zrotation
													JOINT LeftHandRing4
													{
														OFFSET 2.307037 0.000000 0.000000
														CHANNELS 3 Xrotation Yrotation Zrotation
														End Site
														{
															OFFSET 0.000000 0.000000 0.000000
														}
													}
												}
											}
										}
										JOINT LeftHandPinky1
										{
											OFFSET 9.863464 -0.351425 -4.395246
											CHANNELS 3 Xrotation Yrotation Zrotation
											JOINT LeftHandPinky2
											{
												OFFSET 2.647736 0.000000 0.000000
												CHANNELS 3 Xrotation Yrotation Zrotation
												JOINT LeftHandPinky3
												{
													OFFSET 2.219719 0.000000 0.000000
													CHANNELS 3 Xrotation Yrotation Zrotation
													JOINT LeftHandPinky4
													{
														OFFSET 1.855507 0.000000 0.000000
														CHANNELS 3 Xrotation Yrotation Zrotation
														End Site
														{
															OFFSET 0.000000 0.000000 0.000000
														}
													}
												}
											}
										}
									}
								}
							}
						}
					}
					JOINT RightShoulder
					{
						OFFSET -3.340650 6.393051 -0.853611
						CHANNELS 3 Xrotation Yrotation Zrotation
						JOINT RightShoulder_split
						{
							OFFSET -3.340650 6.393051 -0.853611
							CHANNELS 3 Xrotation Yrotation Zrotation
							JOINT RightArm
							{
								OFFSET -13.585576 -3.446152 -0.085196
								CHANNELS 3 Xrotation Yrotation Zrotation
								JOINT RightForeArm
								{
									OFFSET -27.318214 0.000000 0.000002
									CHANNELS 3 Xrotation Yrotation Zrotation
									JOINT RightHand
									{
										OFFSET -20.889801 0.000000 0.000001
										CHANNELS 3 Xrotation Yrotation Zrotation
										JOINT RightHandThumb1
										{
											OFFSET -4.042946 -1.401764 2.740883
											CHANNELS 3 Xrotation Yrotation Zrotation
											JOINT RightHandThumb2
											{
												OFFSET -3.149010 -1.818085 1.818083
												CHANNELS 3 Xrotation Yrotation Zrotation
												JOINT RightHandThumb3
												{
													OFFSET -2.605377 -1.504211 1.504218
													CHANNELS 3 Xrotation Yrotation Zrotation
													JOINT RightHandThumb4
													{
														OFFSET -2.034538 -1.174637 1.174643
														CHANNELS 3 Xrotation Yrotation Zrotation
														End Site
														{
															OFFSET 0.000000 0.000000 0.000000
														}
													}
												}
											}
										}
										JOINT RightHandIndex1
										{
											OFFSET -11.498108 -0.223465 2.596514
											CHANNELS 3 Xrotation Yrotation Zrotation
											JOINT RightHandIndex2
											{
												OFFSET -3.230072 0.000000 0.000000
												CHANNELS 3 Xrotation Yrotation Zrotation
												JOINT RightHandIndex3
												{
													OFFSET -3.008400 0.000000 0.000000
													CHANNELS 3 Xrotation Yrotation Zrotation
													JOINT RightHandIndex4
													{
														OFFSET -2.577469 0.000000 0.000000
														CHANNELS 3 Xrotation Yrotation Zrotation
														End Site
														{
															OFFSET 0.000000 0.000000 0.000000
														}
													}
												}
											}
										}
										JOINT RightHandMiddle1
										{
											OFFSET -11.291573 0.000000 0.000000
											CHANNELS 3 Xrotation Yrotation Zrotation
											JOINT RightHandMiddle2
											{
												OFFSET -3.513855 0.000000 0.000000
												CHANNELS 3 Xrotation Yrotation Zrotation
												JOINT RightHandMiddle3
												{
													OFFSET -3.299538 0.000000 0.000000
													CHANNELS 3 Xrotation Yrotation Zrotation
													JOINT RightHandMiddle4
													{
														OFFSET -2.888702 0.000000 0.000000
														CHANNELS 3 Xrotation Yrotation Zrotation
														End Site
														{
															OFFSET 0.000000 0.000000 0.000000
														}
													}
												}
											}
										}
										JOINT RightHandRing1
										{
											OFFSET -11.158524 -0.069885 -2.264038
											CHANNELS 3 Xrotation Yrotation Zrotation
											JOINT RightHandRing2
											{
												OFFSET -2.878105 0.000000 0.000000
												CHANNELS 3 Xrotation Yrotation Zrotation
												JOINT RightHandRing3
												{
													OFFSET -2.739204 0.000000 0.000000
													CHANNELS 3 Xrotation Yrotation Zrotation
													JOINT RightHandRing4
													{
														OFFSET -2.335304 0.000000 0.000000
														CHANNELS 3 Xrotation Yrotation Zrotation
														End Site
														{
															OFFSET 0.000000 0.000000 0.000000
														}
													}
												}
											}
										}
										JOINT RightHandPinky1
										{
											OFFSET -9.865288 -0.197952 -4.417972
											CHANNELS 3 Xrotation Yrotation Zrotation
											JOINT RightHandPinky2
											{
												OFFSET -2.659409 0.000000 0.000000
												CHANNELS 3 Xrotation Yrotation Zrotation
												JOINT RightHandPinky3
												{
													OFFSET -2.181625 0.000000 0.000000
													CHANNELS 3 Xrotation Yrotation Zrotation
													JOINT RightHandPinky4
													{
														OFFSET -1.923111 0.000000 0.000000
														CHANNELS 3 Xrotation Yrotation Zrotation
														End Site
														{
															OFFSET 0.000000 0.000000 0.000000
														}
													}
												}
											}
										}
									}
								}
							}
						}
					}
				}
			}
		}
	}
	JOINT LeftUpLeg
	{
		OFFSET 8.726300 -5.393196 -0.445400
		CHANNELS 3 Xrotation Yrotation Zrotation
		JOINT LeftLeg
		{
			OFFSET 0.203112 -40.995728 -2.240422
			CHANNELS 3 Xrotation Yrotation Zrotation
			JOINT LeftFoot
			{
				OFFSET -0.203116 -41.811745 -4.341125
				CHANNELS 3 Xrotation Yrotation Zrotation
				JOINT LeftToeBase
				{
					OFFSET 2.022961 -9.567262 15.917597
					CHANNELS 3 Xrotation Yrotation Zrotation
					JOINT LeftToe_End
					{
						OFFSET 0.919500 0.587269 6.993709
						CHANNELS 3 Xrotation Yrotation Zrotation
						End Site
						{
							OFFSET 0.000000 0.000000 0.000000
						}
					}
				}
			}
		}
	}
	JOINT RightUpLeg
	{
		OFFSET -8.726300 -5.393196 -0.458900
		CHANNELS 3 Xrotation Yrotation Zrotation
		JOINT RightLeg
		{
			OFFSET -0.203119 -40.995686 -2.183443
			CHANNELS 3 Xrotation Yrotation Zrotation
			JOINT RightFoot
			{
				OFFSET 0.203109 -41.812000 -3.686646
				CHANNELS 3 Xrotation Yrotation Zrotation
				JOINT RightToeBase
				{
					OFFSET -2.022940 -9.566534 15.362668
					CHANNELS 3 Xrotation Yrotation Zrotation
					JOINT RightToe_End
					{
						OFFSET -0.919481 0.587567 7.048032
						CHANNELS 3 Xrotation Yrotation Zrotation
						End Site
						{
							OFFSET 0.000000 0.000000 0.000000
						}
					}
				}
			}
		}
	}
}
MOTION
Frames: 4
Frame Time: 0.016667
1.123491 94.467743 1.404176 -1.069504 -3.140198 7.425940 -1.399159 0.555206 0.172994 6.496312 -0.160543 -3.781749 0.000000 0.000000 0.000000 6.504165 -0.147038 -3.779290 -1.722806 3.064334 -1.216010 -1.722804 3.064335 -1.216010 -0.000000 -0.000000 0.000000 0.636319 -5.343835 -7.290860 0.000000 0.000000 0.000000 4.781220 -12.078989 -62.755614 -0.000019 -15.083346 -0.000002 32.464261 5.550481 5.047267 -3.717903 17.628126 14.011609 4.535417 15.200308 1.290807 -0.579468 1.575002 2.538707 -0.000002 0.000003 -0.000001 0.091400 1.120373 -9.326084 0.010527 0.381570 -3.163637 0.010542 0.381599 -3.163635 -0.000001 -0.000001 0.000000 0.147441 1.420116 -11.854483 0.112428 1.241682 -10.346727 0.103244 1.190351 -9.914569 -0.000000 0.000001 -0.000001 0.216539 1.716526 -14.378547 0.351923 2.177169 -18.362175 0.349707 2.170458 -18.303534 -0.000000 0.000001 0.000000 1.473699 5.900827 -16.553657 0.638737 -1.173766 -25.156560 0.631761 2.885934 -24.691400 -0.000005 -0.000000 0.000002 0.912651 9.410341 6.885622 0.000000 0.000000 0.000000 3.491449 22.445089 71.781286 -0.000022 7.179547 0.000019 38.346919 4.903518 -1.707378 -4.077546 -16.174549 -15.131709 5.287476 -15.850484 -0.724070 -1.273742 0.137311 -2.094882 -0.000002 0.000003 -0.000002 0.000422 -0.077668 0.637286 0.101290 -1.184916 9.771538 0.115315 -1.263609 10.428002 -0.000001 -0.000000 -0.000001 0.079676 -1.051872 8.665055 0.177245 -1.562902 12.937415 0.200913 -1.662670 13.779667 0.000002 0.000000 0.000001 0.343075 -2.161154 18.038475 0.305689 -2.042888 17.019431 0.329244 -2.118217 17.667806 -0.000000 0.000001 0.000002 0.731923 -3.110263 26.479108 0.398645 -2.324674 19.457869 0.451729 -2.469754 20.727652 -0.000000 -0.000003 0.000001 -17.927590 6.361194 -8.635105 34.136435 8.515122 1.480186 -14.763845 0.039580 -0.827588 -0.154106 -0.000010 0.000002 0.000000 -0.000001 0.000000 -24.551632 5.502430 -4.877871 47.041138 -10.762628 -10.355345 -19.331023 -4.190392 -1.292024 -5.963147 -0.000022 0.000043 -0.000000 -0.000006 -0.000000 
1.069468 94.496094 1.381340 -1.321609 -1.744444 7.209826 -1.240106 0.016999 0.041580 6.505116 -0.220156 -3.589296 0.000000 0.000000 0.000000 6.507867 -0.210232 -3.592037 -1.432874 2.951031 -1.183239 -1.432868 2.951031 -1.183241 0.000000 -0.000001 -0.000000 0.634478 -5.421423 -7.350457 0.000000 0.000000 0.000000 3.690625 -12.906930 -62.540497 -0.000009 -14.331989 -0.000003 33.313332 5.261413 6.142944 -3.717927 17.628131 14.011605 4.535419 15.200308 1.290809 -0.579466 1.574999 2.538710 -0.000002 0.000000 0.000001 0.085473 1.083832 -9.019306 0.009905 0.370084 -3.068089 0.009908 0.370069 -3.068073 0.000001 -0.000001 -0.000001 0.140596 1.387173 -11.575409 0.109401 1.225031 -10.206486 0.100619 1.175224 -9.787162 0.000001 0.000000 0.000001 0.208868 1.686403 -14.120671 0.345181 2.156736 -18.183697 0.343311 2.151071 -18.134034 -0.000000 0.000002 -0.000001 1.447879 5.877114 -16.302224 0.628444 -1.195819 -24.955303 0.621627 2.863827 -24.489380 -0.000000 -0.000005 0.000005 0.900618 9.512234 7.025961 0.000000 0.000000 0.000000 2.270067 21.613061 71.012787 0.000003 7.448051 0.000006 34.500361 4.185050 -2.029709 -4.077546 -16.174549 -15.131714 5.287477 -15.850484 -0.724072 -1.273742 0.137310 -2.094880 -0.000003 0.000004 -0.000002 0.000405 0.075374 -0.618512 0.093846 -1.140960 9.405824 0.111318 -1.241707 10.245122 0.000002 0.000000 -0.000001 0.058019 -0.898250 7.391743 0.165447 -1.510752 12.498556 0.195545 -1.640612 13.592912 0.000001 0.000001 -0.000000 0.293973 -2.004166 16.687124 0.289617 -1.989669 16.562755 0.322138 -2.095798 17.474624 0.000000 -0.000002 0.000004 0.654413 -2.949747 25.012745 0.382527 -2.278577 19.056472 0.443127 -2.446909 20.526919 -0.000001 -0.000001 0.000002 -17.933408 5.693010 -8.524875 34.252763 7.571110 1.429661 -14.683565 0.012543 -0.609663 -0.256478 0.000004 0.000001 0.000000 0.000000 0.000000 -24.374964 4.969131 -4.410867 47.159017 -10.933925 -10.369591 -19.224274 -5.065805 -2.130819 -6.115126 -0.000019 0.000054 0.000000 -0.000003 0.000001 
1.018533 94.545013 1.371841 -1.484936 -0.459240 7.009350 -1.172400 -0.452961 -0.017370 6.461326 -0.271979 -3.451785 0.000000 0.000000 0.000000 6.459627 -0.265013 -3.459066 -1.129274 2.839127 -1.170995 -1.129260 2.839128 -1.170998 0.000000 0.000000 -0.000000 0.632192 -5.444042 -7.412203 0.000000 0.000000 0.000000 2.767274 -13.436293 -62.377550 0.000004 -13.411543 0.000015 34.024109 4.832190 7.164650 -3.717919 17.628141 14.011598 4.535417 15.200309 1.290805 -0.579466 1.575007 2.538704 -0.000001 0.000006 -0.000003 0.079631 1.046366 -8.704926 0.009317 0.358768 -2.974354 0.009311 0.358789 -2.974362 -0.000001 -0.000001 -0.000000 0.133837 1.353757 -11.292735 0.106558 1.209064 -10.071967 0.098152 1.160815 -9.666082 0.000002 -0.000001 0.000000 0.201381 1.656354 -13.863779 0.338899 2.137585 -18.016407 0.337397 2.132975 -17.976272 -0.000003 -0.000001 0.000001 1.422698 5.853728 -16.055719 0.619000 -1.216148 -24.769789 0.612383 2.843427 -24.303208 -0.000001 0.000000 -0.000002 0.892178 9.563609 7.084035 0.000000 0.000000 0.000000 1.479099 21.145991 70.674583 -0.000012 7.423627 0.000004 31.309543 3.655523 -2.618831 -4.077545 -16.174549 -15.131710 5.287470 -15.850484 -0.724074 -1.273741 0.137308 -2.094882 -0.000000 0.000005 -0.000003 0.003616 0.224621 -1.843487 0.086942 -1.098469 9.052355 0.107526 -1.220519 10.068356 0.000001 -0.000000 -0.000001 0.040232 -0.748446 6.153682 0.154491 -1.460416 12.075333 0.190441 -1.619314 13.413277 0.000002 0.000000 0.000002 0.249943 -1.851019 15.377932 0.274584 -1.938454 16.124229 0.315412 -2.074322 17.289707 -0.000001 -0.000002 0.000001 0.583431 -2.792772 23.595875 0.367412 -2.234447 18.673104 0.434980 -2.425041 20.335196 0.000000 -0.000002 -0.000000 -17.966314 4.989043 -8.431154 34.266899 6.792968 1.365647 -14.564076 -0.005640 -0.427496 -0.375626 -0.000003 0.000002 0.000000 -0.000001 0.000000 -24.154551 4.476624 -3.971750 47.057507 -10.938457 -10.373593 -19.031784 -5.650431 -2.220224 -6.209839 -0.000023 0.000059 0.000001 0.000000 0.000001 
0.964262 94.598427 1.370238 -1.569223 0.737205 6.904021 -1.212816 -0.816495 -0.025704 6.354639 -0.313432 -3.408502 0.000000 0.000000 0.000000 6.349373 -0.308209 -3.419340 -0.810419 2.724252 -1.182469 -0.810402 2.724253 -1.182470 0.000001 0.000000 -0.000000 0.629398 -5.420145 -7.474645 0.000000 0.000000 0.000000 1.950032 -13.747225 -62.223679 0.000003 -12.416165 0.000001 34.714074 4.323434 8.088383 -3.717910 17.628127 14.011612 4.535413 15.200306 1.290805 -0.579471 1.575010 2.538706 0.000000 0.000003 0.000002 0.073885 1.008054 -8.383849 0.008712 0.346699 -2.874188 0.008702 0.346720 -2.874171 0.000001 0.000000 -0.000000 0.127035 1.319177 -11.000556 0.103699 1.192960 -9.936458 0.095708 1.146378 -9.544628 0.000003 -0.000000 0.000001 0.193660 1.624705 -13.593634 0.332913 2.119087 -17.855163 0.331841 2.115739 -17.825926 0.000002 -0.000002 0.000000 1.395884 5.828617 -15.792195 0.610285 -1.235079 -24.597323 0.603818 2.824429 -24.130167 -0.000002 0.000003 -0.000001 0.886304 9.564980 7.083071 0.000000 0.000000 0.000000 0.958713 20.975726 70.669030 0.000001 7.242963 -0.000006 28.246070 3.239388 -3.275277 -4.077549 -16.174549 -15.131710 5.287473 -15.850484 -0.724072 -1.273739 0.137310 -2.094884 0.000000 0.000003 -0.000005 0.009785 0.369375 -3.032519 0.080688 -1.058343 8.719033 0.103999 -1.200516 9.901700 -0.000002 -0.000000 0.000000 0.026184 -0.604132 4.963616 0.144529 -1.413108 11.678555 0.185746 -1.599527 13.246202 0.000001 0.000002 -0.000002 0.211316 -1.704503 14.133465 0.261025 -1.890933 15.718362 0.309303 -2.054593 17.120016 0.000003 -0.000004 0.000002 0.520077 -2.643172 22.260056 0.353931 -2.194150 18.323927 0.427635 -2.405130 20.160546 0.000000 0.000001 -0.000002 -18.025329 4.254520 -8.447656 34.187733 6.213638 1.297462 -14.404666 -0.013460 -0.292369 -0.511569 0.000008 0.000004 0.000000 0.000000 0.000000 -23.938471 4.087556 -3.648418 46.871521 -10.915190 -10.371387 -18.741390 -5.760912 -1.433466 -6.341664 -0.000021 0.000051 -0.000000 -0.000001 0.000002 
